<?xml version="1.0" encoding="utf-8"?>
<!-- Svg Vector Icons : http://www.onlinewebfonts.com/icon -->
<!DOCTYPE svg PUBLIC "-//W3C//DTD SVG 1.1//EN" "http://www.w3.org/Graphics/SVG/1.1/DTD/svg11.dtd">
<svg version="1.1" xmlns="http://www.w3.org/2000/svg" xmlns:xlink="http://www.w3.org/1999/xlink" x="0px" y="0px" viewBox="0 0 256 256" enable-background="new 0 0 256 256" xml:space="preserve">
<metadata> Svg Vector Icons : http://www.onlinewebfonts.com/icon </metadata>
<g><g><path fill="#000000" d="M128,171.7c36.6,0,66.4-36,66.4-80.2c0-44.2-29.8-80.2-66.4-80.2c-18.1,0-34.9,8.5-47.5,24.1c-12.2,15-18.9,35-18.9,56.1C61.6,135.8,91.4,171.7,128,171.7z M128,26c28.5,0,51.6,29.4,51.6,65.6c0,36.2-23.2,65.6-51.6,65.6c-28.5,0-51.6-29.4-51.6-65.6C76.4,55.4,99.5,26,128,26z M179.6,157.2c-4.1,0-7.4,3.3-7.4,7.3c0,4,3.3,7.3,7.4,7.3c28.5,0,51.6,22.9,51.6,51c0,4-3.3,7.3-7.4,7.3H32.1c-4.1,0-7.4-3.3-7.4-7.3c0-28.1,23.2-51,51.6-51c4.1,0,7.4-3.3,7.4-7.3c0-4-3.3-7.3-7.4-7.3c-36.6,0-66.4,29.4-66.4,65.6c0,12.1,9.9,21.9,22.1,21.9h191.7c12.2,0,22.1-9.8,22.1-21.9C246,186.6,216.2,157.2,179.6,157.2z"/></g></g>
</svg>